<?xml version="1.0" encoding="utf-8"?>
<!DOCTYPE svg PUBLIC "-//W3C//DTD SVG 20010904//EN" "http://www.w3.org/TR/2001/REC-SVG-20010904/DTD/svg10.dtd">
<svg version="1.0" xmlns="http://www.w3.org/2000/svg" width="514pt" height="514pt" viewBox="0 0 514 514" style="" preserveAspectRatio="xMidYMid meet">
<g fill="#FFE817FF" stroke="#FFE817FF">
<path d="M 226.000 136.904 C 216.566 139.001 205.003 142.987 197.732 146.650 C 194.015 148.522 192.532 148.820 191.000 148.000 C 189.431 147.160 188.217 147.490 184.973 149.637 C 182.419 151.327 181.112 152.851 181.454 153.741 C 182.311 155.973 176.462 161.203 173.534 160.822 C 169.949 160.355 157.807 172.383 158.615 175.601 C 159.027 177.244 157.939 179.331 154.413 183.659 C 145.027 195.182 139.098 206.039 133.710 221.566 C 129.181 234.619 126.879 244.725 122.019 272.889 C 118.049 295.897 113.916 311.163 109.898 317.665 C 108.802 319.438 104.510 324.851 100.361 329.694 C 89.026 342.924 83.000 356.894 83.000 369.944 C 83.000 380.547 89.295 393.878 97.396 400.431 L 101.189 403.500 115.845 403.341 C 139.670 403.083 163.877 398.846 186.617 390.955 C 199.469 386.495 227.910 372.263 239.345 364.569 C 267.298 345.762 284.823 329.565 308.500 300.654 C 329.365 275.178 343.667 248.851 349.871 224.500 C 353.367 210.777 353.214 209.390 346.772 196.500 C 340.794 184.538 333.834 175.086 324.171 165.806 C 309.126 151.358 294.974 143.472 274.000 137.850 C 262.783 134.844 237.514 134.346 226.000 136.904 M 192.500 186.619 C 192.500 189.139 191.638 190.395 188.007 193.164 C 175.040 203.054 163.525 224.700 155.945 253.434 C 152.828 265.253 151.431 267.589 148.114 266.536 C 145.095 265.578 144.684 262.478 146.524 254.546 C 152.267 229.802 163.228 206.432 175.231 193.341 C 184.703 183.010 192.500 179.975 192.500 186.619 M 230.926 160.926 C 234.063 164.063 232.507 166.371 224.743 170.093 C 220.835 171.967 214.090 175.863 209.754 178.751 C 203.511 182.908 201.492 183.799 200.053 183.028 C 197.957 181.907 196.844 179.558 197.553 177.750 C 198.567 175.160 224.778 159.178 228.250 159.032 C 228.663 159.014 229.867 159.867 230.926 160.926 "/></g>
<g fill="#FEB31CFF" stroke="#FEB31CFF">
<path d="M 352.028 213.500 C 351.981 217.737 347.736 233.090 344.003 242.521 C 329.634 278.823 294.020 323.590 256.845 352.079 C 236.496 367.674 207.579 383.681 186.617 390.955 C 163.978 398.811 140.087 403.008 115.736 403.406 L 100.842 403.649 108.711 407.246 C 119.924 412.372 130.259 414.161 152.002 414.738 C 172.459 415.282 186.023 413.879 202.682 409.498 C 244.327 398.546 284.271 372.433 314.621 336.318 C 335.105 311.943 343.038 299.543 351.049 279.377 C 358.240 261.273 359.960 242.124 356.081 223.330 C 353.944 212.972 352.083 208.460 352.028 213.500 "/></g>
<g fill="#7B365DFF" stroke="#7B365DFF">
<path d="M 334.667 91.667 C 334.300 92.033 334.000 95.652 334.000 99.709 C 334.000 103.765 333.298 110.553 332.440 114.792 C 330.657 123.601 323.727 138.588 318.778 144.338 L 315.475 148.176 308.016 143.577 C 298.868 137.937 283.357 131.807 272.000 129.344 C 259.251 126.579 233.800 126.827 221.101 129.841 C 210.339 132.395 192.928 139.317 190.489 142.012 C 189.152 143.490 189.061 144.246 190.009 146.016 C 191.435 148.681 192.658 148.461 203.687 143.557 C 218.387 137.021 229.345 134.732 246.500 134.615 C 264.141 134.494 273.285 136.114 288.500 142.055 C 315.858 152.736 339.825 176.425 350.714 203.545 C 357.308 219.967 360.361 241.905 358.016 256.010 C 353.023 286.042 333.936 318.178 301.698 350.829 C 270.604 382.323 232.520 404.017 194.369 411.967 C 170.769 416.884 139.713 416.921 120.700 412.053 C 104.556 407.920 92.235 399.000 86.889 387.576 C 78.214 369.037 82.896 348.563 100.232 329.233 C 111.887 316.237 115.788 306.107 121.019 275.240 C 129.318 226.280 136.010 206.884 151.722 186.259 C 158.354 177.553 159.336 174.559 155.915 173.473 C 153.254 172.629 150.878 174.836 143.696 184.822 C 134.145 198.101 125.954 216.551 121.054 235.820 C 119.980 240.044 117.268 254.075 115.028 267.000 C 108.650 303.798 106.085 311.291 96.090 322.319 C 81.605 338.303 75.536 352.425 75.597 370.000 C 75.684 394.841 92.758 413.563 120.676 419.431 C 138.616 423.201 167.197 423.905 185.000 421.016 C 229.294 413.828 271.824 391.329 306.000 357.004 C 317.441 345.513 334.626 324.690 342.055 313.315 C 357.410 289.805 366.000 264.946 366.000 244.021 C 366.000 213.953 353.495 184.393 331.304 162.006 C 325.358 156.008 322.180 152.086 322.691 151.378 C 333.065 136.996 335.985 131.289 339.000 119.500 C 341.293 110.533 341.773 94.173 339.800 92.200 C 338.493 90.893 335.728 90.605 334.667 91.667 "/></g>
<g fill="#A5DC69FF" stroke="#A5DC69FF">
<path d="M 383.500 125.591 C 379.650 126.452 373.197 128.530 369.161 130.209 C 361.557 133.371 344.000 144.288 344.000 145.854 C 344.000 147.951 353.135 154.908 358.581 156.958 C 373.148 162.441 385.422 161.750 399.397 154.657 C 405.687 151.465 409.612 148.448 416.941 141.171 L 426.382 131.797 423.965 129.974 C 422.636 128.971 421.312 128.191 421.024 128.239 C 420.243 128.372 414.650 126.811 413.500 126.140 C 410.074 124.140 391.504 123.800 383.500 125.591 "/></g>
<g fill="#7B365DFF" stroke="#7B365DFF">
<path d="M 384.238 117.110 C 371.503 119.232 355.877 126.520 342.373 136.637 C 338.069 139.862 334.115 142.804 333.586 143.175 C 330.604 145.269 351.412 166.029 363.310 172.830 C 374.357 179.145 383.722 182.060 395.063 182.717 C 405.397 183.315 409.000 182.360 409.000 179.024 C 409.000 176.125 407.423 175.656 397.056 175.474 C 385.629 175.273 375.337 171.903 364.250 164.731 C 355.534 159.092 342.462 146.679 343.489 145.017 C 345.092 142.424 362.400 131.991 369.894 129.101 C 380.992 124.821 386.185 123.767 396.500 123.701 C 413.100 123.595 429.318 129.965 441.750 141.474 C 448.785 147.988 452.478 149.525 453.664 146.433 C 456.310 139.539 429.179 121.265 410.792 117.555 C 402.478 115.878 392.628 115.713 384.238 117.110 "/></g>
<g fill="#FFFFFFFF" stroke="#FFFFFFFF">
<path d="M 184.400 185.848 C 170.994 195.636 158.203 216.977 150.565 242.298 C 145.980 257.497 145.036 264.693 147.501 265.639 C 150.665 266.853 152.292 264.546 154.688 255.444 C 163.432 222.233 173.506 203.807 190.293 190.326 C 193.409 187.823 193.618 186.761 191.429 184.571 C 189.328 182.471 188.925 182.544 184.400 185.848 "/></g>
<g fill="#FFFFFFFF" stroke="#FFFFFFFF">
<path d="M 219.000 164.032 C 208.648 169.523 199.089 176.145 198.405 178.298 C 197.835 180.096 199.494 183.000 201.092 183.000 C 201.557 183.000 205.440 180.712 209.719 177.915 C 213.999 175.118 220.532 171.405 224.238 169.665 C 231.129 166.428 233.096 164.026 230.960 161.452 C 229.143 159.262 227.200 159.681 219.000 164.032 "/></g>
<g fill="#7B365DFF" stroke="#7B365DFF">
<path d="M 173.174 153.314 C 168.776 157.996 171.881 162.973 176.873 159.245 C 180.202 156.760 181.446 154.605 180.691 152.636 C 179.780 150.262 175.695 150.631 173.174 153.314 "/></g>
</svg>
